<svg xmlns="http://www.w3.org/2000/svg" viewBox="0 0 1288.58 497.3"><defs><style>.cls-1,.cls-2,.cls-3{fill:#fff;}.cls-2,.cls-3{stroke:#fff;stroke-miterlimit:10;}.cls-3{stroke-width:6px;}</style></defs><title>logo-patients_1</title><g id="Capa_2" data-name="Capa 2"><g id="_30" data-name="30"><path class="cls-1" d="M384,65.3v16H368a16,16,0,0,0-16,16v16a16,16,0,0,0,16,16h16v16a16,16,0,0,0,16,16h16a16,16,0,0,0,16-16v-16h16a16,16,0,0,0,16-16v-16a16,16,0,0,0-16-16H432v-16a16,16,0,0,0-16-16H400A16,16,0,0,0,384,65.3Zm64,32v16H416v32H400v-32H368v-16h32v-32h16v32ZM417.8,5.9,408,0l-9.8,5.9A136.69,136.69,0,0,1,328,25.3h-8v40H304v-8a56,56,0,0,0-112,0v8H80a16,16,0,0,0-16,16v64.1a61.32,61.32,0,0,0-46.4,23A81.64,81.64,0,0,0,0,219a80.3,80.3,0,0,0,23.8,57.4L64,316.6V481.3a16,16,0,0,0,16,16H416a16,16,0,0,0,16-16V200A119.35,119.35,0,0,0,496,93.8V25.3h-8A136.69,136.69,0,0,1,417.8,5.9ZM384,302.3l-16.9,19H272v96h96v-73l16-18v123H112V364.6l8,8,96.2-96.2a81.78,81.78,0,0,0,14.2-19.1h75.1a24,24,0,1,0,0-16H236.9a80.89,80.89,0,0,0-14.4-72.9,61.6,61.6,0,0,0-91.7-5L120,174l-8-8V113.3H321.6A119.11,119.11,0,0,0,384,200ZM328.3,389,352,362.3v39H288v-64h64v1l-24.3,27.4-18-18L298.4,359ZM320,249.3a8,8,0,1,1,8,8A8,8,0,0,1,320,249.3ZM208,57.3a40,40,0,0,1,80,0v8H272v-8a24,24,0,0,0-48,0v8H208Zm48,8H240v-8a8,8,0,0,1,16,0Zm64,16V93.8c0,1.2.1,2.3.1,3.5H96v55.9A61.06,61.06,0,0,0,80,147V81.3ZM16,218.7a64.3,64.3,0,0,1,14.2-40.3,45.62,45.62,0,0,1,67.9-3.7L120,196.6l21.9-21.9a45.62,45.62,0,0,1,67.9,3.7A65.1,65.1,0,0,1,224,219a64.28,64.28,0,0,1-4,22.3H147l-17.6,35.2-24.8-74.4-22,55.2H64v16H93.4l9.9-24.8,23.2,69.6,30.4-60.8h54.5a60.58,60.58,0,0,1-6.6,7.8L120,350,35.1,265.1A65,65,0,0,1,16,218.7ZM416,481.3H80V332.6l16,16V465.3H400V207c1.9.7,3.8,1.4,5.7,2l2.3.7,2.3-.7c1.9-.6,3.8-1.3,5.7-2ZM480,93.8a103.48,103.48,0,0,1-72,99.1,103.57,103.57,0,0,1-72-99.1V41.1a152.87,152.87,0,0,0,70.4-21.5l1.6-1,1.6,1A152.87,152.87,0,0,0,480,41.1ZM240,401.3h16v16H240Zm-32,0h16v16H208Zm-32,0h16v16H176Zm80-217h59v16H256Zm0-32h59v16H256Z"/><path class="cls-2" d="M528,298.73a35.82,35.82,0,0,1-15-3.09,36.74,36.74,0,0,1-11.83-8.45,39.32,39.32,0,0,1-7.81-12.41,40.15,40.15,0,0,1-2.8-15,39.33,39.33,0,0,1,2.8-14.84,38.34,38.34,0,0,1,7.74-12.18A36.82,36.82,0,0,1,513,224.39a36.35,36.35,0,0,1,41.57,8.39,39.36,39.36,0,0,1,10.32,26.81v2.29a6.07,6.07,0,0,1-.14,1.58H500.76a31.45,31.45,0,0,0,2.8,11.11,30.42,30.42,0,0,0,6.09,8.82,27.23,27.23,0,0,0,8.53,5.8,25.45,25.45,0,0,0,10.25,2.08,26.45,26.45,0,0,0,7.17-1,28.72,28.72,0,0,0,6.59-2.73,24.18,24.18,0,0,0,5.45-4.23,18.27,18.27,0,0,0,3.73-5.51l8.46,2.29a25.05,25.05,0,0,1-4.88,7.53,34.07,34.07,0,0,1-7.31,5.87,35.21,35.21,0,0,1-9.18,3.87A39.64,39.64,0,0,1,528,298.73ZM555.52,256a29.94,29.94,0,0,0-8.81-19.49,26.71,26.71,0,0,0-8.46-5.59,26.28,26.28,0,0,0-10.25-2,26.81,26.81,0,0,0-10.32,2,26.36,26.36,0,0,0-8.53,5.59,27.47,27.47,0,0,0-5.88,8.6A32.72,32.72,0,0,0,500.62,256Z"/><path class="cls-2" d="M598.67,298.73a26.34,26.34,0,0,1-9.82-1.8A24.65,24.65,0,0,1,581,292a22.36,22.36,0,0,1-7.1-16.49,18.38,18.38,0,0,1,2.3-9,21.94,21.94,0,0,1,6.45-7.17,31.77,31.77,0,0,1,9.89-4.66A45.9,45.9,0,0,1,605.13,253a68.83,68.83,0,0,1,11.61,1,50.51,50.51,0,0,1,10.46,2.86v-6.73q0-9.9-5.59-15.7t-15.48-5.81a33,33,0,0,0-11.76,2.3,56.65,56.65,0,0,0-12.18,6.59l-3.44-6.45q14.47-9.75,28.1-9.75,14,0,22.07,7.89T637,251v33.69q0,4,3.59,4v8.6a23,23,0,0,1-3.73.43,8.41,8.41,0,0,1-5.81-1.86,7,7,0,0,1-2.22-5.16l-.29-5.88a33.87,33.87,0,0,1-13,10.32A39.91,39.91,0,0,1,598.67,298.73Zm2.3-7.46a33.62,33.62,0,0,0,14-2.87,22.84,22.84,0,0,0,9.67-7.59,9,9,0,0,0,1.94-2.8,7.13,7.13,0,0,0,.64-2.79V263a60.24,60.24,0,0,0-10.1-2.87,56.52,56.52,0,0,0-10.68-1q-10.32,0-16.78,4.3t-6.45,11.32a15.46,15.46,0,0,0,1.36,6.46,16.39,16.39,0,0,0,3.73,5.23,17.47,17.47,0,0,0,5.66,3.51A19.12,19.12,0,0,0,601,291.27Z"/><path class="cls-2" d="M682.83,298.73a52,52,0,0,1-17.06-2.87,40.87,40.87,0,0,1-14.34-8.32l4.45-6.59a48.5,48.5,0,0,0,12.83,7.74,37.58,37.58,0,0,0,14,2.58q9,0,14.41-3.65a11.85,11.85,0,0,0,5.38-10.4A9,9,0,0,0,701,272a12.46,12.46,0,0,0-4.23-3.66,32.83,32.83,0,0,0-7-2.79q-4.23-1.21-9.82-2.51-6.45-1.57-11.18-3.15a34.53,34.53,0,0,1-7.82-3.59,12.91,12.91,0,0,1-4.58-4.94,16,16,0,0,1-1.51-7.39,21.28,21.28,0,0,1,2.22-9.89,20.22,20.22,0,0,1,6-7.1,27.4,27.4,0,0,1,8.89-4.22,39.58,39.58,0,0,1,10.83-1.44,41.77,41.77,0,0,1,15.62,2.8,30.88,30.88,0,0,1,11.33,7.38l-4.73,5.73a26.43,26.43,0,0,0-10.11-6.45,36.3,36.3,0,0,0-12.4-2.15,31.13,31.13,0,0,0-7.17.79,17.21,17.21,0,0,0-5.8,2.51,12.44,12.44,0,0,0-4,4.37,13,13,0,0,0-1.43,6.24,10.22,10.22,0,0,0,1,4.87,8.54,8.54,0,0,0,3.3,3.23,26.78,26.78,0,0,0,5.81,2.44q3.51,1.06,8.53,2.22,7.15,1.71,12.61,3.44a40,40,0,0,1,9.1,4,15.84,15.84,0,0,1,5.52,5.59,16,16,0,0,1,1.87,8A19.46,19.46,0,0,1,704,292.7Q696.17,298.73,682.83,298.73Z"/><path class="cls-2" d="M730.71,320.23c.76.09,1.5.17,2.22.21s1.41.08,2.08.08a9.64,9.64,0,0,0,4.09-.72,7.6,7.6,0,0,0,2.93-3.15,51.75,51.75,0,0,0,3.23-7q1.79-4.59,5.09-12.33L717.81,222.6h10l27.67,65.66,25.66-65.66h9.32l-38.71,96.34a17.52,17.52,0,0,1-5.23,7.24q-3.66,3.07-10,3.08c-1,0-1.87,0-2.73-.07s-1.91-.17-3.15-.36Z"/><path class="cls-3" d="M874.93,298.73a29.43,29.43,0,0,1-16.7-4.81,38.16,38.16,0,0,1-11.69-12.11v46h-9.75V222.6h8.75v14.48a36.25,36.25,0,0,1,11.9-11.4,30.48,30.48,0,0,1,15.91-4.37,31.28,31.28,0,0,1,14.19,3.23,36.34,36.34,0,0,1,11.18,8.6,39.85,39.85,0,0,1,7.39,12.4A40.83,40.83,0,0,1,908.76,260a45,45,0,0,1-2.44,14.91,38,38,0,0,1-7,12.33,33.5,33.5,0,0,1-10.75,8.38A30.44,30.44,0,0,1,874.93,298.73Zm-2.73-8.61a23.35,23.35,0,0,0,11-2.58,27.22,27.22,0,0,0,8.46-6.81,30.44,30.44,0,0,0,5.37-9.6A33.49,33.49,0,0,0,898.87,260a31,31,0,0,0-2.15-11.47,31.86,31.86,0,0,0-5.88-9.6,28,28,0,0,0-8.82-6.6,25.12,25.12,0,0,0-11-2.44,22.72,22.72,0,0,0-7.82,1.51,32.31,32.31,0,0,0-7.6,4,27.33,27.33,0,0,0-6,5.88,15.84,15.84,0,0,0-3.08,7.1v22.93a34.17,34.17,0,0,0,4.37,7.46,31.1,31.1,0,0,0,6,5.95,28.81,28.81,0,0,0,7.24,3.94A22.85,22.85,0,0,0,872.2,290.12Z"/><path class="cls-3" d="M944,298.73a26.3,26.3,0,0,1-9.82-1.8,24.65,24.65,0,0,1-7.88-4.94,22.36,22.36,0,0,1-7.1-16.49,18.38,18.38,0,0,1,2.3-9A21.83,21.83,0,0,1,928,259.3a31.77,31.77,0,0,1,9.89-4.66A45.9,45.9,0,0,1,950.48,253a68.83,68.83,0,0,1,11.61,1,50.68,50.68,0,0,1,10.46,2.86v-6.73q0-9.9-5.59-15.7t-15.48-5.81a33,33,0,0,0-11.76,2.3,56.65,56.65,0,0,0-12.18,6.59l-3.44-6.45q14.48-9.75,28.1-9.75,14,0,22.07,7.89t8,21.79v33.69c0,2.67,1.2,4,3.58,4v8.6a22.74,22.74,0,0,1-3.72.43,8.41,8.41,0,0,1-5.81-1.86,7,7,0,0,1-2.22-5.16l-.29-5.88a33.87,33.87,0,0,1-13,10.32A39.94,39.94,0,0,1,944,298.73Zm2.3-7.46a33.62,33.62,0,0,0,14-2.87,22.84,22.84,0,0,0,9.67-7.59,9,9,0,0,0,1.94-2.8,7.13,7.13,0,0,0,.64-2.79V263a60.24,60.24,0,0,0-10.1-2.87,56.52,56.52,0,0,0-10.68-1q-10.34,0-16.78,4.3t-6.45,11.32a15.46,15.46,0,0,0,1.36,6.46,16.39,16.39,0,0,0,3.73,5.23,17.47,17.47,0,0,0,5.66,3.51A19.12,19.12,0,0,0,946.32,291.27Z"/><path class="cls-3" d="M1038.64,293.71c-.57.28-1.41.67-2.51,1.15s-2.36.95-3.8,1.43a43.54,43.54,0,0,1-4.87,1.29,28,28,0,0,1-5.74.57,20.62,20.62,0,0,1-6-.86,13.85,13.85,0,0,1-5-2.65,12.91,12.91,0,0,1-3.44-4.52,14.38,14.38,0,0,1-1.29-6.3V230.34H995.63V222.6H1006V197.37h9.74V222.6h17.21v7.74H1015.7v50.75q.28,4.17,2.94,6.1a10.07,10.07,0,0,0,6.09,1.93,18.31,18.31,0,0,0,7.32-1.36,31,31,0,0,0,4-1.94Z"/><path class="cls-3" d="M1050.83,207V192.64h9.74V207Zm0,90.31V222.6h9.74v74.69Z"/><path class="cls-3" d="M1114.33,298.73a35.82,35.82,0,0,1-15-3.09,36.74,36.74,0,0,1-11.83-8.45,39.32,39.32,0,0,1-7.81-12.41,40.35,40.35,0,0,1-2.79-15,39.52,39.52,0,0,1,2.79-14.84,38.51,38.51,0,0,1,7.74-12.18,36.82,36.82,0,0,1,11.83-8.32,36.35,36.35,0,0,1,41.57,8.39,39.36,39.36,0,0,1,10.32,26.81v2.29a5.65,5.65,0,0,1-.14,1.58h-63.94a31.45,31.45,0,0,0,2.8,11.11,30.81,30.81,0,0,0,6.09,8.82,27.34,27.34,0,0,0,8.53,5.8,25.45,25.45,0,0,0,10.25,2.08,26.45,26.45,0,0,0,7.17-1,28.72,28.72,0,0,0,6.59-2.73,24,24,0,0,0,5.45-4.23,18.09,18.09,0,0,0,3.73-5.51l8.46,2.29a25.05,25.05,0,0,1-4.88,7.53,34.07,34.07,0,0,1-7.31,5.87,35.29,35.29,0,0,1-9.17,3.87A39.77,39.77,0,0,1,1114.33,298.73ZM1141.86,256a30.17,30.17,0,0,0-2.8-11,29.82,29.82,0,0,0-6-8.53,26.71,26.71,0,0,0-8.46-5.59,26.28,26.28,0,0,0-10.25-2,26.81,26.81,0,0,0-10.32,2,26.47,26.47,0,0,0-8.53,5.59,27.47,27.47,0,0,0-5.88,8.6A32.72,32.72,0,0,0,1087,256Z"/><path class="cls-3" d="M1229,297.29h-9.75V255.57q0-13.32-3.94-19.35t-12.12-6a24.91,24.91,0,0,0-8.6,1.58,28.81,28.81,0,0,0-7.95,4.44,33.85,33.85,0,0,0-6.53,6.81,26.73,26.73,0,0,0-4.16,8.53v45.73h-9.74V222.6h8.89v16.92a35,35,0,0,1,13.11-13.19,36,36,0,0,1,18.57-5,21.94,21.94,0,0,1,10.46,2.3,17.85,17.85,0,0,1,6.88,6.45,29.78,29.78,0,0,1,3.73,10.18,71.73,71.73,0,0,1,1.15,13.33Z"/><path class="cls-3" d="M1284.93,293.71c-.58.28-1.41.67-2.51,1.15s-2.37.95-3.8,1.43a43.54,43.54,0,0,1-4.87,1.29,28,28,0,0,1-5.74.57,20.62,20.62,0,0,1-6-.86,14,14,0,0,1-5-2.65,13,13,0,0,1-3.44-4.52,14.53,14.53,0,0,1-1.29-6.3V230.34h-10.32V222.6h10.32V197.37H1262V222.6h17.2v7.74H1262v50.75q.29,4.17,2.94,6.1a10.07,10.07,0,0,0,6.09,1.93,18.26,18.26,0,0,0,7.31-1.36,32.1,32.1,0,0,0,4-1.94Z"/><path class="cls-2" d="M526.42,470.76a32.15,32.15,0,0,1-14.33-3.23A36.46,36.46,0,0,1,500.76,459a39.22,39.22,0,0,1-7.38-12.26,40.4,40.4,0,0,1-2.65-14.55,43.52,43.52,0,0,1,2.58-15,40.06,40.06,0,0,1,7.09-12.4,33.43,33.43,0,0,1,10.76-8.38,30.38,30.38,0,0,1,13.69-3.09,29.21,29.21,0,0,1,16.77,5,37.63,37.63,0,0,1,11.47,12V364.67h9.75v92c0,2.67,1.14,4,3.44,4v8.6a18.28,18.28,0,0,1-3.44.43,8.93,8.93,0,0,1-6-2.22,6.82,6.82,0,0,1-2.59-5.37v-7.32a32.6,32.6,0,0,1-12,11.62A31.65,31.65,0,0,1,526.42,470.76Zm2.15-8.6a23.11,23.11,0,0,0,7.67-1.44,31.29,31.29,0,0,0,7.67-3.94,26.45,26.45,0,0,0,6.1-5.88,15.87,15.87,0,0,0,3.08-7.24V420.58a25.7,25.7,0,0,0-4.16-7.24,33.53,33.53,0,0,0-6.24-5.95,29.47,29.47,0,0,0-7.52-4,23.3,23.3,0,0,0-7.89-1.44,22.81,22.81,0,0,0-10.89,2.59,27.53,27.53,0,0,0-8.39,6.81,30.24,30.24,0,0,0-5.37,9.67,34.12,34.12,0,0,0-1.87,11.18,31.34,31.34,0,0,0,8,21,28.44,28.44,0,0,0,8.82,6.52A25.09,25.09,0,0,0,528.57,462.16Z"/><path class="cls-2" d="M603.69,470.76a26.5,26.5,0,0,1-9.82-1.79,24.85,24.85,0,0,1-7.88-5,22.31,22.31,0,0,1-7.1-16.49,18.4,18.4,0,0,1,2.3-9,21.72,21.72,0,0,1,6.45-7.17,31.77,31.77,0,0,1,9.89-4.66A45.88,45.88,0,0,1,610.14,425a68.84,68.84,0,0,1,11.62,1,50.67,50.67,0,0,1,10.46,2.87v-6.74q0-9.9-5.59-15.7t-15.48-5.81a32.91,32.91,0,0,0-11.76,2.3,57.09,57.09,0,0,0-12.18,6.59l-3.44-6.45q14.47-9.75,28.09-9.75,14.05,0,22.08,7.89T642,423v33.69q0,4,3.58,4v8.6a22.74,22.74,0,0,1-3.72.43,8.41,8.41,0,0,1-5.81-1.86,7,7,0,0,1-2.22-5.16l-.29-5.88a33.78,33.78,0,0,1-13,10.32A39.94,39.94,0,0,1,603.69,470.76Zm2.3-7.46a33.54,33.54,0,0,0,14-2.87,22.81,22.81,0,0,0,9.68-7.59,8.89,8.89,0,0,0,1.94-2.8,7.09,7.09,0,0,0,.64-2.79V435.06a60.24,60.24,0,0,0-10.1-2.87,57.38,57.38,0,0,0-10.69-1q-10.32,0-16.77,4.3t-6.45,11.33a15.45,15.45,0,0,0,1.36,6.45,16.39,16.39,0,0,0,3.73,5.23A17.47,17.47,0,0,0,599,462,19.12,19.12,0,0,0,606,463.3Z"/><path class="cls-2" d="M698.31,465.74c-.57.29-1.41.67-2.51,1.15s-2.36.95-3.8,1.43a43.54,43.54,0,0,1-4.87,1.29,28,28,0,0,1-5.74.57,20.62,20.62,0,0,1-6-.86,14,14,0,0,1-5-2.65,13.08,13.08,0,0,1-3.44-4.51,14.6,14.6,0,0,1-1.29-6.31V402.38H655.3v-7.75h10.32V369.4h9.75v25.23h17.21v7.75H675.37v50.74q.28,4.17,2.94,6.1a10.07,10.07,0,0,0,6.09,1.93,18.26,18.26,0,0,0,7.31-1.36,30.66,30.66,0,0,0,4-1.94Z"/><path class="cls-2" d="M729.27,470.76a26.5,26.5,0,0,1-9.82-1.79,24.85,24.85,0,0,1-7.88-5,22.31,22.31,0,0,1-7.1-16.49,18.4,18.4,0,0,1,2.3-9,21.83,21.83,0,0,1,6.45-7.17,31.77,31.77,0,0,1,9.89-4.66A45.9,45.9,0,0,1,735.73,425a68.81,68.81,0,0,1,11.61,1,50.67,50.67,0,0,1,10.46,2.87v-6.74q0-9.9-5.59-15.7t-15.48-5.81A33,33,0,0,0,725,403a57.09,57.09,0,0,0-12.18,6.59l-3.44-6.45q14.48-9.75,28.1-9.75,14,0,22.07,7.89t8,21.79v33.69c0,2.67,1.2,4,3.58,4v8.6a22.74,22.74,0,0,1-3.72.43,8.41,8.41,0,0,1-5.81-1.86,7,7,0,0,1-2.22-5.16l-.29-5.88a33.78,33.78,0,0,1-13,10.32A39.94,39.94,0,0,1,729.27,470.76Zm2.3-7.46a33.62,33.62,0,0,0,14-2.87,22.84,22.84,0,0,0,9.67-7.59,8.89,8.89,0,0,0,1.94-2.8,7.09,7.09,0,0,0,.64-2.79V435.06a60.24,60.24,0,0,0-10.1-2.87,57.35,57.35,0,0,0-10.68-1q-10.34,0-16.78,4.3t-6.45,11.33a15.45,15.45,0,0,0,1.36,6.45,16.39,16.39,0,0,0,3.73,5.23,17.47,17.47,0,0,0,5.66,3.51A19.12,19.12,0,0,0,731.57,463.3Z"/></g></g></svg>