<?xml version="1.0" encoding="utf-8"?>
<!-- Generator: Adobe Illustrator 23.0.5, SVG Export Plug-In . SVG Version: 6.00 Build 0)  -->
<svg version="1.1" id="_x33_0" xmlns="http://www.w3.org/2000/svg" xmlns:xlink="http://www.w3.org/1999/xlink" x="0px" y="0px"
	 viewBox="0 0 512 512" style="enable-background:new 0 0 512 512;" xml:space="preserve">
<style type="text/css">
	.st0{fill:url(#SVGID_1_);}
</style>
<linearGradient id="SVGID_1_" gradientUnits="userSpaceOnUse" x1="283.9562" y1="10.8688" x2="235.1313" y2="-37.9562" gradientTransform="matrix(8 0 0 8 -1792 367.9999)">
	<stop  offset="6.766293e-07" style="stop-color:#55C7FD"/>
	<stop  offset="0.9955" style="stop-color:#26FFD3"/>
</linearGradient>
<path class="st0" d="M392,72v16h-16c-8.8,0-16,7.2-16,16v16c0,8.8,7.2,16,16,16h16v16c0,8.8,7.2,16,16,16h16c8.8,0,16-7.2,16-16v-16
	h16c8.8,0,16-7.2,16-16v-16c0-8.8-7.2-16-16-16h-16V72c0-8.8-7.2-16-16-16h-16C399.2,56,392,63.2,392,72z M456,104v16h-32v32h-16
	v-32h-32v-16h32V72h16v32H456z M425.8,12.6L416,6.7l-9.8,5.9C385,25.3,360.7,32,336,32h-8v40h-16v-8c0-30.9-25.1-56-56-56
	s-56,25.1-56,56v8H88c-8.8,0-16,7.2-16,16v64.1c-18.2,0.5-35,8.8-46.4,23C14.3,189.4,8,207.2,8,225.7c0,21.7,8.4,42.1,23.8,57.4
	L72,323.3V488c0,8.8,7.2,16,16,16h336c8.8,0,16-7.2,16-16V206.7c39-20.5,64-60.7,64-106.2V32h-8C471.3,32,447,25.3,425.8,12.6z
	 M392,309l-16.9,19H280v96h96v-73l16-18v123H120v-84.7l8,8l96.2-96.2c5.7-5.7,10.5-12.2,14.2-19.1h75.1c3.3,9.3,12.1,16,22.5,16
	c13.2,0,24-10.8,24-24s-10.8-24-24-24c-10.4,0-19.2,6.7-22.5,16h-68.6c2.1-7.2,3.2-14.8,3.2-22.6c0-18.2-6.3-36.1-17.6-50.3
	c-11.8-14.7-29.3-23.1-48.1-23.1c-16.5,0-31.9,6.4-43.6,18.1L128,180.7l-8-8V120h209.6c6,37.3,29.1,69.2,62.4,86.7V309z
	 M336.3,395.7L360,369v39h-64v-64h64v1l-24.3,27.4l-18-18l-11.3,11.3L336.3,395.7z M328,256c0-4.4,3.6-8,8-8s8,3.6,8,8s-3.6,8-8,8
	S328,260.4,328,256z M216,64c0-22.1,17.9-40,40-40s40,17.9,40,40v8h-16v-8c0-13.2-10.8-24-24-24s-24,10.8-24,24v8h-16V64z M264,72
	h-16v-8c0-4.4,3.6-8,8-8s8,3.6,8,8V72z M328,88v12.5c0,1.2,0.1,2.3,0.1,3.5H104v55.9c-5-2.8-10.4-4.9-16-6.2V88H328z M24,225.4
	c0-14.6,5-28.9,14.2-40.3c8.7-10.9,21.7-17.1,35.6-17.1c12.2,0,23.6,4.7,32.3,13.4l21.9,21.9l21.9-21.9c8.6-8.6,20.1-13.4,32.3-13.4
	c13.9,0,26.9,6.2,35.6,17.1c9.1,11.4,14.2,25.7,14.2,40.6c0,7.7-1.4,15.3-4,22.3h-73l-17.6,35.2l-24.8-74.4l-22,55.2H72v16h29.4
	l9.9-24.8l23.2,69.6l30.4-60.8h54.5c-2,2.7-4.1,5.4-6.6,7.8L128,356.7l-84.9-84.9C30.8,259.5,24,243.1,24,225.4z M424,488H88V339.3
	l16,16V472h304V213.7c1.9,0.7,3.8,1.4,5.7,2l2.3,0.7l2.3-0.7c1.9-0.6,3.8-1.3,5.7-2V488z M488,100.5c0,45.6-28.8,85.1-72,99.1
	c-43.2-14-72-53.6-72-99.1V47.8c24.8-1.3,49-8.7,70.4-21.5l1.6-1l1.6,1C439,39.1,463.2,46.5,488,47.8V100.5z M248,408h16v16h-16V408
	z M216,408h16v16h-16V408z M184,408h16v16h-16V408z M264,191h59v16h-59V191z M264,159h59v16h-59V159z"/>
</svg>
